# xmcd
# Track frame offsets:
# 182
# 14607
# 25817
# 42622
# 60142
# 74165
# 85807
# 100412
# 113690
# 129682
# 140190
# 159350
# 177202
# 188495
# 194285
# 205377
# 216902
#
# Disc length: 3072 seconds
# Revision: 0
# Processed by: cddbd v1.5PL3 Copyright (c) Steve Scherf et al.
# Submitted via: VisiTrax 2.9.9.209 - For more info visit www.synapsa.com
#
DISCID=fa0bfe11
DTITLE=Mean Red Spiders - Dark Hours
DYEAR=1991
DGENRE=
TTITLE0=Love In A Botle
TTITLE1=Live And Let Live
TTITLE2=Arms Open Wide
TTITLE3=Just Can't Stop
TTITLE4=Feel So Bad
TTITLE5=Drunken Fool
TTITLE6=Dangerous Game
TTITLE7=Heaven Above
TTITLE8=The Teacher
TTITLE9=Happy On My Own
TTITLE10=Murder My Baby
TTITLE11=Love Won't Save You Now
TTITLE12=Sure Can't Hide
TTITLE13=Lie And Cheat You Blind
TTITLE14=No More Work Song
TTITLE15=Coming Back For More
TTITLE16=Call Me Long Distance
EXTD=
EXTT0=
EXTT1=
EXTT2=
EXTT3=
EXTT4=
EXTT5=
EXTT6=
EXTT7=
EXTT8=
EXTT9=
EXTT10=
EXTT11=
EXTT12=
EXTT13=
EXTT14=
EXTT15=
EXTT16=
PLAYORDER=
